<svg xmlns="http://www.w3.org/2000/svg" viewBox="0 0 1200 600" preserveAspectRatio="xMidYMax slice">
  <defs>
    <linearGradient id="osky" x1="0" y1="0" x2="0" y2="1">
      <stop offset="0" stop-color="#a8c2cb"/>
      <stop offset="1" stop-color="#c8d6db"/>
    </linearGradient>
    <style>
      .road-stripe { animation: road-flow 1.4s linear infinite; }
      @keyframes road-flow { to { stroke-dashoffset: -22; } }
    </style>
  </defs>
  <rect width="1200" height="600" fill="url(#osky)"/>
  <circle cx="900" cy="170" r="55" fill="#f4d690" opacity="0.6"/>
  <!-- waves - shifted up so topmost wave meets the dock's far edge (y=422) -->
  <path d="M0 422 Q150 402 300 422 T600 422 T900 422 T1200 422 L1200 600 L0 600 Z" fill="#7395a3" opacity="0.7"/>
  <path d="M0 462 Q200 442 400 462 T800 462 T1200 462 L1200 600 L0 600 Z" fill="#5a7c8a" opacity="0.7"/>
  <path d="M0 502 Q150 487 300 502 T600 502 T900 502 T1200 502 L1200 600 L0 600 Z" fill="#476773" opacity="0.75"/>
  <!-- Perspective wooden dock pier extending into the water -->
  <polygon points="585,422 615,422 870,600 330,600" fill="#8a6f4f" opacity="0.95"/>
  <polygon points="593,422 607,422 720,600 480,600" fill="#6b5440" opacity="0.85"/>
  <!-- Plank lines across the dock -->
  <line x1="540" y1="460" x2="660" y2="460" stroke="#5a4534" stroke-width="2" opacity="0.7"/>
  <line x1="490" y1="510" x2="710" y2="510" stroke="#5a4534" stroke-width="2" opacity="0.75"/>
  <line x1="425" y1="560" x2="775" y2="560" stroke="#5a4534" stroke-width="2.5" opacity="0.8"/>
  <line class="road-stripe" x1="600" y1="440" x2="600" y2="600" stroke="#f0e8d0" stroke-width="2" stroke-dasharray="10,12" opacity="0.6"/>
</svg>
