<svg xmlns="http://www.w3.org/2000/svg" viewBox="0 0 1200 600" preserveAspectRatio="xMidYMax slice">
  <defs>
    <linearGradient id="msky" x1="0" y1="0" x2="0" y2="1">
      <stop offset="0" stop-color="#c0b29a"/>
      <stop offset="1" stop-color="#d4c8b4"/>
    </linearGradient>
    <style>
      .road-stripe { animation: road-flow 1.4s linear infinite; }
      @keyframes road-flow { to { stroke-dashoffset: -30; } }
    </style>
  </defs>
  <rect width="1200" height="600" fill="url(#msky)"/>
  <!-- back range -->
  <polygon points="0,500 150,300 350,420 550,280 750,400 950,260 1150,380 1200,420 1200,600 0,600" fill="#8b7d65" opacity="0.7"/>
  <!-- snow caps -->
  <polygon points="130,310 150,300 170,310 165,335 140,335" fill="#f0e8d8" opacity="0.85"/>
  <polygon points="530,290 550,280 570,290 565,315 540,315" fill="#f0e8d8" opacity="0.85"/>
  <polygon points="930,270 950,260 970,270 965,295 940,295" fill="#f0e8d8" opacity="0.85"/>
  <!-- front range -->
  <polygon points="0,560 100,440 250,520 450,400 650,500 850,420 1050,510 1200,460 1200,600 0,600" fill="#6b5d48" opacity="0.85"/>
  <!-- Perspective mountain trail: vanishing point lowered to meet front range top -->
  <polygon points="585,500 615,500 880,600 320,600" fill="#a08868" opacity="0.95"/>
  <polygon points="593,500 607,500 730,600 470,600" fill="#806b50" opacity="0.85"/>
  <line class="road-stripe" x1="600" y1="510" x2="600" y2="600" stroke="#f0e8d0" stroke-width="2.5" stroke-dasharray="14,16" opacity="0.85"/>
</svg>
