<svg xmlns="http://www.w3.org/2000/svg" viewBox="0 0 1200 600" preserveAspectRatio="xMidYMax slice">
  <defs>
    <linearGradient id="fsky" x1="0" y1="0" x2="0" y2="1">
      <stop offset="0" stop-color="#b8cdb0"/>
      <stop offset="1" stop-color="#d4dec8"/>
    </linearGradient>
    <style>
      .road-stripe { animation: road-flow 1.4s linear infinite; }
      @keyframes road-flow { to { stroke-dashoffset: -30; } }
    </style>
  </defs>
  <rect width="1200" height="600" fill="url(#fsky)"/>
  <!-- Ground strip at horizon (y=500), filling down to viewer -->
  <rect y="500" width="1200" height="100" fill="#4a6741" opacity="0.85"/>
  <!-- Meadow flowers sprinkled across the grass (drawn early so trees layer over) -->
  <g opacity="0.9">
    <!-- White wildflowers -->
    <circle cx="40" cy="580" r="2" fill="#f8f0e0"/>
    <circle cx="130" cy="560" r="2" fill="#f8f0e0"/>
    <circle cx="260" cy="585" r="2.5" fill="#f8f0e0"/>
    <circle cx="370" cy="570" r="2" fill="#f8f0e0"/>
    <circle cx="1030" cy="565" r="2" fill="#f8f0e0"/>
    <circle cx="1115" cy="585" r="2.5" fill="#f8f0e0"/>
    <circle cx="1170" cy="555" r="2" fill="#f8f0e0"/>
    <!-- Yellow wildflowers -->
    <circle cx="90" cy="570" r="2" fill="#f4d680"/>
    <circle cx="195" cy="545" r="2" fill="#f4d680"/>
    <circle cx="305" cy="580" r="2.5" fill="#f4d680"/>
    <circle cx="395" cy="555" r="2" fill="#f4d680"/>
    <circle cx="1060" cy="585" r="2" fill="#f4d680"/>
    <circle cx="1145" cy="565" r="2" fill="#f4d680"/>
    <circle cx="1095" cy="545" r="2" fill="#f4d680"/>
    <!-- Purple wildflowers -->
    <circle cx="65" cy="545" r="2" fill="#a890c0"/>
    <circle cx="165" cy="585" r="2" fill="#a890c0"/>
    <circle cx="225" cy="555" r="2.5" fill="#a890c0"/>
    <circle cx="340" cy="590" r="2" fill="#a890c0"/>
    <circle cx="1075" cy="555" r="2" fill="#a890c0"/>
    <circle cx="1130" cy="540" r="2" fill="#a890c0"/>
    <!-- Pink wildflowers -->
    <circle cx="115" cy="590" r="2" fill="#e8a8b8"/>
    <circle cx="230" cy="580" r="2" fill="#e8a8b8"/>
    <circle cx="295" cy="555" r="2.5" fill="#e8a8b8"/>
    <circle cx="1015" cy="590" r="2" fill="#e8a8b8"/>
    <circle cx="1185" cy="575" r="2.5" fill="#e8a8b8"/>
  </g>
  <!-- Background trees (lighter, further back) - added more lining the road horizon edge -->
  <g fill="#6b8f5e" opacity="0.6">
    <polygon points="80,420 60,500 100,500"/>
    <polygon points="180,400 150,500 210,500"/>
    <polygon points="280,410 250,500 310,500"/>
    <polygon points="400,400 360,500 440,500"/>
    <polygon points="490,440 470,500 510,500"/>
    <polygon points="540,460 522,500 558,500"/>
    <polygon points="660,460 642,500 678,500"/>
    <polygon points="710,440 690,500 730,500"/>
    <polygon points="800,400 760,500 840,500"/>
    <polygon points="920,410 890,500 950,500"/>
    <polygon points="1020,400 990,500 1050,500"/>
    <polygon points="1120,400 1090,500 1150,500"/>
  </g>
  <!-- Mid trees (darker green, middle distance) -->
  <g fill="#4a6741" opacity="0.7">
    <polygon points="50,430 20,500 80,500"/>
    <polygon points="240,400 200,500 280,500"/>
    <polygon points="450,420 420,500 480,500"/>
    <polygon points="730,420 700,500 760,500"/>
    <polygon points="940,420 910,500 970,500"/>
    <polygon points="1170,400 1140,500 1200,500"/>
  </g>
  <!-- Perspective road over ground: narrow point at horizon, widens to viewer -->
  <polygon points="585,500 615,500 870,600 330,600" fill="#8a6f4f" opacity="0.95"/>
  <polygon points="593,500 607,500 720,600 480,600" fill="#6f5840" opacity="0.85"/>
  <!-- Center stripe (animated) -->
  <line class="road-stripe" x1="600" y1="510" x2="600" y2="600" stroke="#e8d8b0" stroke-width="2.5" stroke-dasharray="14,16" opacity="0.9"/>
  <!-- Foreground trees (pushed back: smaller, bases at y=540 instead of y=580) -->
  <g fill="#3a5530" opacity="0.9">
    <polygon points="100,380 70,545 130,545"/>
    <polygon points="240,400 210,540 270,540"/>
    <polygon points="930,400 900,540 960,540"/>
    <polygon points="1100,380 1070,545 1130,545"/>
  </g>
  <!-- Fern-shaped grass clusters along the road's grass edges (OUTSIDE the road perspective) -->
  <g stroke="#3a5530" stroke-width="1.2" stroke-linecap="round" fill="none" opacity="0.9">
    <!-- LEFT side ferns, from horizon (smaller, distant) to viewer (larger, closer) -->
    <path d="M 525 528 q 0 -4 0 -8 M 525 525 q -2 -1 -3 -2 M 525 522 q -2 -1 -3 -2 M 525 520 q -1 0 -2 -1 M 525 525 q 2 -1 3 -2 M 525 522 q 2 -1 3 -2 M 525 520 q 1 0 2 -1"/>
    <path d="M 475 548 q 0 -5 0 -11 M 475 544 q -3 -1 -4 -2 M 475 540 q -3 -1 -4 -2 M 475 537 q -2 -1 -3 -1 M 475 544 q 3 -1 4 -2 M 475 540 q 3 -1 4 -2 M 475 537 q 2 -1 3 -1"/>
    <path d="M 420 568 q 0 -7 0 -14 M 420 563 q -4 -1 -5 -3 M 420 558 q -4 -1 -5 -3 M 420 553 q -3 -1 -3 -2 M 420 563 q 4 -1 5 -3 M 420 558 q 4 -1 5 -3 M 420 553 q 3 -1 3 -2"/>
    <path d="M 370 583 q 0 -8 0 -17 M 370 577 q -5 -1 -6 -3 M 370 571 q -5 -1 -6 -3 M 370 565 q -3 -1 -4 -2 M 370 577 q 5 -1 6 -3 M 370 571 q 5 -1 6 -3 M 370 565 q 3 -1 4 -2"/>
    <path d="M 320 597 q 0 -10 0 -20 M 320 590 q -6 -1 -7 -3 M 320 583 q -6 -1 -7 -3 M 320 577 q -4 -1 -5 -2 M 320 590 q 6 -1 7 -3 M 320 583 q 6 -1 7 -3 M 320 577 q 4 -1 5 -2"/>
    <!-- RIGHT side ferns (mirror) -->
    <path d="M 675 528 q 0 -4 0 -8 M 675 525 q 2 -1 3 -2 M 675 522 q 2 -1 3 -2 M 675 520 q 1 0 2 -1 M 675 525 q -2 -1 -3 -2 M 675 522 q -2 -1 -3 -2 M 675 520 q -1 0 -2 -1"/>
    <path d="M 725 548 q 0 -5 0 -11 M 725 544 q 3 -1 4 -2 M 725 540 q 3 -1 4 -2 M 725 537 q 2 -1 3 -1 M 725 544 q -3 -1 -4 -2 M 725 540 q -3 -1 -4 -2 M 725 537 q -2 -1 -3 -1"/>
    <path d="M 780 568 q 0 -7 0 -14 M 780 563 q 4 -1 5 -3 M 780 558 q 4 -1 5 -3 M 780 553 q 3 -1 3 -2 M 780 563 q -4 -1 -5 -3 M 780 558 q -4 -1 -5 -3 M 780 553 q -3 -1 -3 -2"/>
    <path d="M 830 583 q 0 -8 0 -17 M 830 577 q 5 -1 6 -3 M 830 571 q 5 -1 6 -3 M 830 565 q 3 -1 4 -2 M 830 577 q -5 -1 -6 -3 M 830 571 q -5 -1 -6 -3 M 830 565 q -3 -1 -4 -2"/>
    <path d="M 880 597 q 0 -10 0 -20 M 880 590 q 6 -1 7 -3 M 880 583 q 6 -1 7 -3 M 880 577 q 4 -1 5 -2 M 880 590 q -6 -1 -7 -3 M 880 583 q -6 -1 -7 -3 M 880 577 q -4 -1 -5 -2"/>
  </g>
</svg>
